<svg xmlns="http://www.w3.org/2000/svg" version="1.1" xmlns:xlink="http://www.w3.org/1999/xlink" xmlns:svgjs="http://svgjs.dev/svgjs" width="2000" height="1247" viewBox="0 0 2000 1247"><g transform="matrix(1,0,0,1,-1.2121212121212466,0.504858299595071)"><svg viewBox="0 0 396 247" data-background-color="#ffffff" preserveAspectRatio="xMidYMid meet" height="1247" width="2000" xmlns="http://www.w3.org/2000/svg" xmlns:xlink="http://www.w3.org/1999/xlink"><g id="tight-bounds" transform="matrix(1,0,0,1,0.2400000000000091,-0.09999999999999432)"><svg viewBox="0 0 395.52 247.2" height="247.2" width="395.52"><g><svg></svg></g><g><svg viewBox="0 0 395.52 247.2" height="247.2" width="395.52"><g transform="matrix(1,0,0,1,150.26432307692306,47.215199999999996)"><svg viewBox="0 0 94.99135384615384 152.7696" height="152.7696" width="94.99135384615384"><g><svg viewBox="0 0 94.99135384615384 152.7696" height="152.7696" width="94.99135384615384"><g><svg viewBox="0 0 94.99135384615384 152.7696" height="152.7696" width="94.99135384615384"><g><svg viewBox="0 0 94.99135384615384 152.7696" height="152.7696" width="94.99135384615384"><g id="textblocktransform"><svg viewBox="0 0 94.99135384615384 152.7696" height="152.7696" width="94.99135384615384" id="textblock"><g><svg viewBox="0 0 94.99135384615384 152.7696" height="152.7696" width="94.99135384615384"><g transform="matrix(1,0,0,1,0,0)"><svg width="94.99135384615384" viewBox="2.15 -21.25 13.48 21.67" height="152.7696" data-palette-color="#ff0033"><path d="M8.72 0.42L8.72 0.42Q7.12 0.42 5.3-0.19 3.47-0.8 2.15-2.22L2.15-2.22 3.19-6.32Q4.17-4.69 5.69-3.73 7.22-2.78 8.96-2.78L8.96-2.78Q10.63-2.78 11.46-3.59 12.29-4.41 12.29-5.59L12.29-5.59Q12.29-6.94 11.41-7.57 10.52-8.19 9.83-8.44L9.83-8.44 7.01-9.51Q6.25-9.83 5.17-10.43 4.1-11.04 3.3-12.19 2.5-13.33 2.5-15.17L2.5-15.17Q2.5-16.84 3.3-18.23 4.1-19.62 5.56-20.43 7.01-21.25 8.99-21.25L8.99-21.25Q10.56-21.25 12.26-20.69 13.96-20.14 15.14-18.82L15.14-18.82 14.1-14.72Q13.26-16.25 11.84-17.15 10.42-18.06 8.89-18.06L8.89-18.06Q7.47-18.06 6.65-17.26 5.83-16.46 5.83-15.42L5.83-15.42Q5.83-14.58 6.39-13.92 6.94-13.26 8.06-12.85L8.06-12.85 10.87-11.77Q11.63-11.49 12.76-10.87 13.89-10.24 14.76-9.06 15.63-7.88 15.63-5.87L15.63-5.87Q15.63-3.06 13.66-1.32 11.7 0.42 8.72 0.42Z" opacity="1" transform="matrix(1,0,0,1,0,0)" fill="#ff0033" class="wordmark-text-0" data-fill-palette-color="primary" id="text-0"></path></svg></g></svg></g></svg></g></svg></g></svg></g></svg></g></svg></g><g><path d="M171.096 0c30.402 0 58.24 10.976 79.768 29.183l-11.147 0c-19.26-14.022-42.974-22.294-68.621-22.295-25.647 0-49.361 8.272-68.621 22.295l-11.148 0c21.528-18.206 49.366-29.183 79.769-29.183zM171.096 247.2c-30.402 0-58.24-10.976-79.769-29.183h11.148c19.26 14.022 42.974 22.294 68.621 22.295 25.647 0 49.361-8.272 68.621-22.295h11.147c-21.528 18.206-49.366 29.183-79.768 29.183z" fill="#ff0033" stroke="transparent" data-fill-palette-color="tertiary"></path></g></svg></g><defs></defs></svg><rect width="395.52" height="247.2" fill="none" stroke="none" visibility="hidden"></rect></g></svg></g></svg>